# xmcd
#
# Track frame offsets:
#	150
#	23251
#	38779
#	58497
#	71372
#	97006
#	122087
#	146252
#	162528
#	186072
#	216756
#	242816
#	260944
#	284871
#	309179
#	330454
#
# Disc length: 4636 seconds
#
# Revision: 0
# Processed by: cddbd v1.5.1PL2 Copyright (c) Steve Scherf et al.
# Submitted via: dBpowerAMP V4.0
#
DISCID=f0121a10
DTITLE=Fleetwood Mac - Fleetwood Mac in Chicago 1969 - Disc 1
DYEAR=1994
DGENRE=Blues
TTITLE0=Watch Out
TTITLE1=Ooh Baby
TTITLE2=South Indiana (Take 1)
TTITLE3=South Indiana (Take 2)
TTITLE4=Last Night
TTITLE5=Red Hot Jam
TTITLE6=The World's in a Tangle
TTITLE7=Talk with You
TTITLE8=Like It This Way
TTITLE9=Someday Soon Baby
TTITLE10=Hungry Country Girl
TTITLE11=I'm Worried
TTITLE12=I Held My Baby Last Night
TTITLE13=Madison Blues
TTITLE14=I Can't Hold Out
TTITLE15=I Need Your Love
EXTD=
EXTT0=
EXTT1=
EXTT2=
EXTT3=
EXTT4=
EXTT5=
EXTT6=
EXTT7=
EXTT8=
EXTT9=
EXTT10=
EXTT11=
EXTT12=
EXTT13=
EXTT14=
EXTT15=
PLAYORDER=
